<svg xmlns="http://www.w3.org/2000/svg" fill="none" viewBox="0 0 24 24"><path fill="currentColor" d="M10.74 6.05a1.36 1.36 0 0 1 2.52 0 4.76 4.76 0 0 1 3.5 4.59v3.194l1.245 1.869a.68.68 0 0 1-.566 1.057h-3.083a2.38 2.38 0 0 1-4.712 0H6.561a.68.68 0 0 1-.566-1.057l1.245-1.869v-3.193a4.76 4.76 0 0 1 3.5-4.591m.017 10.71c.13.423.317.68.52.824.172.122.512.187.723.187s.576-.04.835-.222c.327-.232.413-.59.484-.789zM12 6.853c-.902 0-2.064.429-2.701 1.066-.638.638-.996 1.82-.996 2.722v3.4a.7.7 0 0 1-.114.377l-.949 1.285h9.52l-.956-1.285a.7.7 0 0 1-.113-.378v-3.4c0-.901-.359-2.083-.996-2.72-.638-.638-1.793-1.067-2.695-1.067"/></svg>